<mxfile host="app.diagrams.net" modified="2023-08-28T12:59:33.517Z" agent="Mozilla/5.0 (Windows NT 10.0; Win64; x64) AppleWebKit/537.36 (KHTML, like Gecko) Chrome/116.0.0.0 Safari/537.36" etag="Ha-XK6vSVse2Hu0NINcW" version="21.6.5" type="github">
  <diagram name="第 1 页" id="wzOyLqBRaBhxUj8H1N5F">
    <mxGraphModel dx="1834" dy="796" grid="0" gridSize="10" guides="1" tooltips="1" connect="1" arrows="1" fold="1" page="0" pageScale="1" pageWidth="827" pageHeight="1169" math="0" shadow="0">
      <root>
        <mxCell id="0" />
        <mxCell id="1" parent="0" />
        <mxCell id="A7zyZed8wjgDJn2fPI7L-10" style="rounded=0;orthogonalLoop=1;jettySize=auto;html=1;entryX=1;entryY=0;entryDx=0;entryDy=0;" edge="1" parent="1" source="A7zyZed8wjgDJn2fPI7L-1" target="A7zyZed8wjgDJn2fPI7L-2">
          <mxGeometry relative="1" as="geometry" />
        </mxCell>
        <mxCell id="A7zyZed8wjgDJn2fPI7L-11" style="rounded=0;orthogonalLoop=1;jettySize=auto;html=1;entryX=0;entryY=0;entryDx=0;entryDy=0;" edge="1" parent="1" source="A7zyZed8wjgDJn2fPI7L-1" target="A7zyZed8wjgDJn2fPI7L-3">
          <mxGeometry relative="1" as="geometry" />
        </mxCell>
        <mxCell id="A7zyZed8wjgDJn2fPI7L-1" value="&lt;font style=&quot;font-size: 18px;&quot; face=&quot;Times New Roman&quot;&gt;1&lt;/font&gt;" style="ellipse;whiteSpace=wrap;html=1;aspect=fixed;" vertex="1" parent="1">
          <mxGeometry x="-54" y="121" width="40" height="40" as="geometry" />
        </mxCell>
        <mxCell id="A7zyZed8wjgDJn2fPI7L-12" style="rounded=0;orthogonalLoop=1;jettySize=auto;html=1;entryX=1;entryY=0;entryDx=0;entryDy=0;" edge="1" parent="1" source="A7zyZed8wjgDJn2fPI7L-2" target="A7zyZed8wjgDJn2fPI7L-4">
          <mxGeometry relative="1" as="geometry" />
        </mxCell>
        <mxCell id="A7zyZed8wjgDJn2fPI7L-13" style="edgeStyle=none;shape=connector;rounded=0;orthogonalLoop=1;jettySize=auto;html=1;entryX=0;entryY=0;entryDx=0;entryDy=0;labelBackgroundColor=default;strokeColor=default;fontFamily=Helvetica;fontSize=11;fontColor=default;endArrow=classic;" edge="1" parent="1" source="A7zyZed8wjgDJn2fPI7L-2" target="A7zyZed8wjgDJn2fPI7L-5">
          <mxGeometry relative="1" as="geometry" />
        </mxCell>
        <mxCell id="A7zyZed8wjgDJn2fPI7L-2" value="&lt;font style=&quot;font-size: 18px;&quot; face=&quot;Times New Roman&quot;&gt;2&lt;/font&gt;" style="ellipse;whiteSpace=wrap;html=1;aspect=fixed;" vertex="1" parent="1">
          <mxGeometry x="-118" y="212" width="40" height="40" as="geometry" />
        </mxCell>
        <mxCell id="A7zyZed8wjgDJn2fPI7L-3" value="&lt;font style=&quot;font-size: 18px;&quot; face=&quot;Times New Roman&quot;&gt;3&lt;/font&gt;" style="ellipse;whiteSpace=wrap;html=1;aspect=fixed;" vertex="1" parent="1">
          <mxGeometry x="9" y="212" width="40" height="40" as="geometry" />
        </mxCell>
        <mxCell id="A7zyZed8wjgDJn2fPI7L-4" value="&lt;font style=&quot;font-size: 18px;&quot; face=&quot;Times New Roman&quot;&gt;4&lt;/font&gt;" style="ellipse;whiteSpace=wrap;html=1;aspect=fixed;" vertex="1" parent="1">
          <mxGeometry x="-181" y="303" width="40" height="40" as="geometry" />
        </mxCell>
        <mxCell id="A7zyZed8wjgDJn2fPI7L-14" style="edgeStyle=none;shape=connector;rounded=0;orthogonalLoop=1;jettySize=auto;html=1;entryX=1;entryY=0;entryDx=0;entryDy=0;labelBackgroundColor=default;strokeColor=default;fontFamily=Helvetica;fontSize=11;fontColor=default;endArrow=classic;" edge="1" parent="1" source="A7zyZed8wjgDJn2fPI7L-5" target="A7zyZed8wjgDJn2fPI7L-6">
          <mxGeometry relative="1" as="geometry" />
        </mxCell>
        <mxCell id="A7zyZed8wjgDJn2fPI7L-15" style="edgeStyle=none;shape=connector;rounded=0;orthogonalLoop=1;jettySize=auto;html=1;entryX=0;entryY=0;entryDx=0;entryDy=0;labelBackgroundColor=default;strokeColor=default;fontFamily=Helvetica;fontSize=11;fontColor=default;endArrow=classic;" edge="1" parent="1" source="A7zyZed8wjgDJn2fPI7L-5" target="A7zyZed8wjgDJn2fPI7L-7">
          <mxGeometry relative="1" as="geometry" />
        </mxCell>
        <mxCell id="A7zyZed8wjgDJn2fPI7L-5" value="&lt;font style=&quot;font-size: 18px;&quot; face=&quot;Times New Roman&quot;&gt;5&lt;/font&gt;" style="ellipse;whiteSpace=wrap;html=1;aspect=fixed;" vertex="1" parent="1">
          <mxGeometry x="-54" y="303" width="40" height="40" as="geometry" />
        </mxCell>
        <mxCell id="A7zyZed8wjgDJn2fPI7L-6" value="&lt;font style=&quot;font-size: 18px;&quot; face=&quot;Times New Roman&quot;&gt;6&lt;/font&gt;" style="ellipse;whiteSpace=wrap;html=1;aspect=fixed;" vertex="1" parent="1">
          <mxGeometry x="-117.5" y="394" width="40" height="40" as="geometry" />
        </mxCell>
        <mxCell id="A7zyZed8wjgDJn2fPI7L-7" value="&lt;font style=&quot;font-size: 18px;&quot; face=&quot;Times New Roman&quot;&gt;7&lt;/font&gt;" style="ellipse;whiteSpace=wrap;html=1;aspect=fixed;" vertex="1" parent="1">
          <mxGeometry x="9.5" y="394" width="40" height="40" as="geometry" />
        </mxCell>
        <mxCell id="A7zyZed8wjgDJn2fPI7L-21" style="edgeStyle=none;shape=connector;rounded=0;orthogonalLoop=1;jettySize=auto;html=1;entryX=1;entryY=0;entryDx=0;entryDy=0;labelBackgroundColor=default;strokeColor=default;fontFamily=Helvetica;fontSize=11;fontColor=default;endArrow=none;endFill=0;" edge="1" parent="1" source="A7zyZed8wjgDJn2fPI7L-16" target="A7zyZed8wjgDJn2fPI7L-19">
          <mxGeometry relative="1" as="geometry" />
        </mxCell>
        <mxCell id="A7zyZed8wjgDJn2fPI7L-16" value="" style="ellipse;whiteSpace=wrap;html=1;aspect=fixed;" vertex="1" parent="1">
          <mxGeometry x="440" y="133" width="40" height="40" as="geometry" />
        </mxCell>
        <mxCell id="A7zyZed8wjgDJn2fPI7L-22" style="edgeStyle=none;shape=connector;rounded=0;orthogonalLoop=1;jettySize=auto;html=1;entryX=0;entryY=0;entryDx=0;entryDy=0;labelBackgroundColor=default;strokeColor=default;fontFamily=Helvetica;fontSize=11;fontColor=default;endArrow=none;endFill=0;" edge="1" parent="1" source="A7zyZed8wjgDJn2fPI7L-19" target="A7zyZed8wjgDJn2fPI7L-20">
          <mxGeometry relative="1" as="geometry" />
        </mxCell>
        <mxCell id="A7zyZed8wjgDJn2fPI7L-19" value="" style="ellipse;whiteSpace=wrap;html=1;aspect=fixed;" vertex="1" parent="1">
          <mxGeometry x="391" y="192" width="40" height="40" as="geometry" />
        </mxCell>
        <mxCell id="A7zyZed8wjgDJn2fPI7L-20" value="" style="ellipse;whiteSpace=wrap;html=1;aspect=fixed;" vertex="1" parent="1">
          <mxGeometry x="440" y="249" width="40" height="40" as="geometry" />
        </mxCell>
        <mxCell id="A7zyZed8wjgDJn2fPI7L-26" style="edgeStyle=none;shape=connector;rounded=0;orthogonalLoop=1;jettySize=auto;html=1;entryX=1;entryY=0;entryDx=0;entryDy=0;labelBackgroundColor=default;strokeColor=default;fontFamily=Helvetica;fontSize=11;fontColor=default;endArrow=none;endFill=0;" edge="1" parent="1" source="A7zyZed8wjgDJn2fPI7L-23" target="A7zyZed8wjgDJn2fPI7L-24">
          <mxGeometry relative="1" as="geometry" />
        </mxCell>
        <mxCell id="A7zyZed8wjgDJn2fPI7L-31" style="edgeStyle=none;shape=connector;rounded=0;orthogonalLoop=1;jettySize=auto;html=1;entryX=0.325;entryY=0.2;entryDx=0;entryDy=0;entryPerimeter=0;labelBackgroundColor=default;strokeColor=default;fontFamily=Helvetica;fontSize=11;fontColor=default;endArrow=none;endFill=0;" edge="1" parent="1" source="A7zyZed8wjgDJn2fPI7L-23" target="A7zyZed8wjgDJn2fPI7L-29">
          <mxGeometry relative="1" as="geometry" />
        </mxCell>
        <mxCell id="A7zyZed8wjgDJn2fPI7L-23" value="" style="ellipse;whiteSpace=wrap;html=1;aspect=fixed;" vertex="1" parent="1">
          <mxGeometry x="738" y="133" width="40" height="40" as="geometry" />
        </mxCell>
        <mxCell id="A7zyZed8wjgDJn2fPI7L-27" style="edgeStyle=none;shape=connector;rounded=0;orthogonalLoop=1;jettySize=auto;html=1;entryX=1;entryY=0;entryDx=0;entryDy=0;labelBackgroundColor=default;strokeColor=default;fontFamily=Helvetica;fontSize=11;fontColor=default;endArrow=none;endFill=0;" edge="1" parent="1" source="A7zyZed8wjgDJn2fPI7L-24" target="A7zyZed8wjgDJn2fPI7L-25">
          <mxGeometry relative="1" as="geometry" />
        </mxCell>
        <mxCell id="A7zyZed8wjgDJn2fPI7L-24" value="" style="ellipse;whiteSpace=wrap;html=1;aspect=fixed;" vertex="1" parent="1">
          <mxGeometry x="684" y="198" width="40" height="40" as="geometry" />
        </mxCell>
        <mxCell id="A7zyZed8wjgDJn2fPI7L-25" value="" style="ellipse;whiteSpace=wrap;html=1;aspect=fixed;" vertex="1" parent="1">
          <mxGeometry x="630" y="261" width="40" height="40" as="geometry" />
        </mxCell>
        <mxCell id="A7zyZed8wjgDJn2fPI7L-28" style="edgeStyle=none;shape=connector;rounded=0;orthogonalLoop=1;jettySize=auto;html=1;entryX=1;entryY=0;entryDx=0;entryDy=0;labelBackgroundColor=default;strokeColor=default;fontFamily=Helvetica;fontSize=11;fontColor=default;endArrow=none;endFill=0;" edge="1" parent="1" source="A7zyZed8wjgDJn2fPI7L-29" target="A7zyZed8wjgDJn2fPI7L-30">
          <mxGeometry relative="1" as="geometry" />
        </mxCell>
        <mxCell id="A7zyZed8wjgDJn2fPI7L-29" value="" style="ellipse;whiteSpace=wrap;html=1;aspect=fixed;" vertex="1" parent="1">
          <mxGeometry x="792" y="198" width="40" height="40" as="geometry" />
        </mxCell>
        <mxCell id="A7zyZed8wjgDJn2fPI7L-30" value="" style="ellipse;whiteSpace=wrap;html=1;aspect=fixed;" vertex="1" parent="1">
          <mxGeometry x="738" y="261" width="40" height="40" as="geometry" />
        </mxCell>
        <mxCell id="A7zyZed8wjgDJn2fPI7L-32" style="edgeStyle=none;shape=connector;rounded=0;orthogonalLoop=1;jettySize=auto;html=1;entryX=1;entryY=0;entryDx=0;entryDy=0;labelBackgroundColor=default;strokeColor=default;fontFamily=Helvetica;fontSize=11;fontColor=default;endArrow=none;endFill=0;" edge="1" parent="1" source="A7zyZed8wjgDJn2fPI7L-34" target="A7zyZed8wjgDJn2fPI7L-35">
          <mxGeometry relative="1" as="geometry" />
        </mxCell>
        <mxCell id="A7zyZed8wjgDJn2fPI7L-33" style="edgeStyle=none;shape=connector;rounded=0;orthogonalLoop=1;jettySize=auto;html=1;entryX=0.325;entryY=0.2;entryDx=0;entryDy=0;entryPerimeter=0;labelBackgroundColor=default;strokeColor=default;fontFamily=Helvetica;fontSize=11;fontColor=default;endArrow=none;endFill=0;" edge="1" parent="1" source="A7zyZed8wjgDJn2fPI7L-34" target="A7zyZed8wjgDJn2fPI7L-36">
          <mxGeometry relative="1" as="geometry" />
        </mxCell>
        <mxCell id="A7zyZed8wjgDJn2fPI7L-34" value="" style="ellipse;whiteSpace=wrap;html=1;aspect=fixed;" vertex="1" parent="1">
          <mxGeometry x="1042" y="133" width="40" height="40" as="geometry" />
        </mxCell>
        <mxCell id="A7zyZed8wjgDJn2fPI7L-35" value="" style="ellipse;whiteSpace=wrap;html=1;aspect=fixed;" vertex="1" parent="1">
          <mxGeometry x="988" y="198" width="40" height="40" as="geometry" />
        </mxCell>
        <mxCell id="A7zyZed8wjgDJn2fPI7L-40" style="edgeStyle=none;shape=connector;rounded=0;orthogonalLoop=1;jettySize=auto;html=1;labelBackgroundColor=default;strokeColor=default;fontFamily=Helvetica;fontSize=11;fontColor=default;endArrow=none;endFill=0;" edge="1" parent="1" source="A7zyZed8wjgDJn2fPI7L-36" target="A7zyZed8wjgDJn2fPI7L-38">
          <mxGeometry relative="1" as="geometry" />
        </mxCell>
        <mxCell id="A7zyZed8wjgDJn2fPI7L-36" value="" style="ellipse;whiteSpace=wrap;html=1;aspect=fixed;" vertex="1" parent="1">
          <mxGeometry x="1096" y="198" width="40" height="40" as="geometry" />
        </mxCell>
        <mxCell id="A7zyZed8wjgDJn2fPI7L-37" style="edgeStyle=none;shape=connector;rounded=0;orthogonalLoop=1;jettySize=auto;html=1;entryX=1;entryY=0;entryDx=0;entryDy=0;labelBackgroundColor=default;strokeColor=default;fontFamily=Helvetica;fontSize=11;fontColor=default;endArrow=none;endFill=0;" edge="1" parent="1" source="A7zyZed8wjgDJn2fPI7L-38" target="A7zyZed8wjgDJn2fPI7L-39">
          <mxGeometry relative="1" as="geometry" />
        </mxCell>
        <mxCell id="A7zyZed8wjgDJn2fPI7L-38" value="" style="ellipse;whiteSpace=wrap;html=1;aspect=fixed;" vertex="1" parent="1">
          <mxGeometry x="1146" y="257" width="40" height="40" as="geometry" />
        </mxCell>
        <mxCell id="A7zyZed8wjgDJn2fPI7L-39" value="" style="ellipse;whiteSpace=wrap;html=1;aspect=fixed;" vertex="1" parent="1">
          <mxGeometry x="1092" y="320" width="40" height="40" as="geometry" />
        </mxCell>
        <mxCell id="A7zyZed8wjgDJn2fPI7L-41" style="edgeStyle=none;shape=connector;rounded=0;orthogonalLoop=1;jettySize=auto;html=1;entryX=1;entryY=0;entryDx=0;entryDy=0;labelBackgroundColor=default;strokeColor=default;fontFamily=Helvetica;fontSize=11;fontColor=default;endArrow=none;endFill=0;" edge="1" parent="1" source="A7zyZed8wjgDJn2fPI7L-43" target="A7zyZed8wjgDJn2fPI7L-45">
          <mxGeometry relative="1" as="geometry" />
        </mxCell>
        <mxCell id="A7zyZed8wjgDJn2fPI7L-42" style="edgeStyle=none;shape=connector;rounded=0;orthogonalLoop=1;jettySize=auto;html=1;entryX=0.325;entryY=0.2;entryDx=0;entryDy=0;entryPerimeter=0;labelBackgroundColor=default;strokeColor=default;fontFamily=Helvetica;fontSize=11;fontColor=default;endArrow=none;endFill=0;" edge="1" parent="1" source="A7zyZed8wjgDJn2fPI7L-43" target="A7zyZed8wjgDJn2fPI7L-48">
          <mxGeometry relative="1" as="geometry" />
        </mxCell>
        <mxCell id="A7zyZed8wjgDJn2fPI7L-43" value="" style="ellipse;whiteSpace=wrap;html=1;aspect=fixed;" vertex="1" parent="1">
          <mxGeometry x="1438" y="133" width="40" height="40" as="geometry" />
        </mxCell>
        <mxCell id="A7zyZed8wjgDJn2fPI7L-44" style="edgeStyle=none;shape=connector;rounded=0;orthogonalLoop=1;jettySize=auto;html=1;entryX=1;entryY=0;entryDx=0;entryDy=0;labelBackgroundColor=default;strokeColor=default;fontFamily=Helvetica;fontSize=11;fontColor=default;endArrow=none;endFill=0;" edge="1" parent="1" source="A7zyZed8wjgDJn2fPI7L-45" target="A7zyZed8wjgDJn2fPI7L-46">
          <mxGeometry relative="1" as="geometry" />
        </mxCell>
        <mxCell id="A7zyZed8wjgDJn2fPI7L-51" style="edgeStyle=none;shape=connector;rounded=0;orthogonalLoop=1;jettySize=auto;html=1;labelBackgroundColor=default;strokeColor=default;fontFamily=Helvetica;fontSize=11;fontColor=default;endArrow=none;endFill=0;" edge="1" parent="1" source="A7zyZed8wjgDJn2fPI7L-45" target="A7zyZed8wjgDJn2fPI7L-50">
          <mxGeometry relative="1" as="geometry" />
        </mxCell>
        <mxCell id="A7zyZed8wjgDJn2fPI7L-45" value="" style="ellipse;whiteSpace=wrap;html=1;aspect=fixed;" vertex="1" parent="1">
          <mxGeometry x="1384" y="198" width="40" height="40" as="geometry" />
        </mxCell>
        <mxCell id="A7zyZed8wjgDJn2fPI7L-55" style="edgeStyle=none;shape=connector;rounded=0;orthogonalLoop=1;jettySize=auto;html=1;entryX=0;entryY=0;entryDx=0;entryDy=0;labelBackgroundColor=default;strokeColor=default;fontFamily=Helvetica;fontSize=11;fontColor=default;endArrow=none;endFill=0;" edge="1" parent="1" source="A7zyZed8wjgDJn2fPI7L-46" target="A7zyZed8wjgDJn2fPI7L-53">
          <mxGeometry relative="1" as="geometry" />
        </mxCell>
        <mxCell id="A7zyZed8wjgDJn2fPI7L-46" value="" style="ellipse;whiteSpace=wrap;html=1;aspect=fixed;" vertex="1" parent="1">
          <mxGeometry x="1330" y="261" width="40" height="40" as="geometry" />
        </mxCell>
        <mxCell id="A7zyZed8wjgDJn2fPI7L-48" value="" style="ellipse;whiteSpace=wrap;html=1;aspect=fixed;" vertex="1" parent="1">
          <mxGeometry x="1492" y="198" width="40" height="40" as="geometry" />
        </mxCell>
        <mxCell id="A7zyZed8wjgDJn2fPI7L-50" value="" style="ellipse;whiteSpace=wrap;html=1;aspect=fixed;" vertex="1" parent="1">
          <mxGeometry x="1438" y="261" width="40" height="40" as="geometry" />
        </mxCell>
        <mxCell id="A7zyZed8wjgDJn2fPI7L-52" style="edgeStyle=none;shape=connector;rounded=0;orthogonalLoop=1;jettySize=auto;html=1;labelBackgroundColor=default;strokeColor=default;fontFamily=Helvetica;fontSize=11;fontColor=default;endArrow=none;endFill=0;" edge="1" parent="1" source="A7zyZed8wjgDJn2fPI7L-53" target="A7zyZed8wjgDJn2fPI7L-54">
          <mxGeometry relative="1" as="geometry" />
        </mxCell>
        <mxCell id="A7zyZed8wjgDJn2fPI7L-53" value="" style="ellipse;whiteSpace=wrap;html=1;aspect=fixed;" vertex="1" parent="1">
          <mxGeometry x="1384" y="324" width="40" height="40" as="geometry" />
        </mxCell>
        <mxCell id="A7zyZed8wjgDJn2fPI7L-54" value="" style="ellipse;whiteSpace=wrap;html=1;aspect=fixed;" vertex="1" parent="1">
          <mxGeometry x="1438" y="387" width="40" height="40" as="geometry" />
        </mxCell>
      </root>
    </mxGraphModel>
  </diagram>
</mxfile>
